<svg width="16" height="28" viewBox="0 0 16 28" fill="none" xmlns="http://www.w3.org/2000/svg">
<path d="M1.2721 1.02942C0.897155 1.40448 0.686523 1.91309 0.686523 2.44342C0.686523 2.97375 0.897155 3.48237 1.2721 3.85742L11.1721 13.7574L1.2721 23.6574C0.90778 24.0346 0.706191 24.5398 0.710748 25.0642C0.715305 25.5886 0.925643 26.0902 1.29646 26.4611C1.66728 26.8319 2.1689 27.0422 2.69329 27.0468C3.21769 27.0513 3.72289 26.8497 4.1001 26.4854L15.4141 15.1714C15.789 14.7964 15.9997 14.2877 15.9997 13.7574C15.9997 13.2271 15.789 12.7185 15.4141 12.3434L4.1001 1.02942C3.72504 0.654478 3.21642 0.443848 2.6861 0.443848C2.15577 0.443848 1.64715 0.654478 1.2721 1.02942Z" fill="#7F3F29"/>
</svg>
