<svg width="16" height="28" viewBox="0 0 16 28" fill="none" xmlns="http://www.w3.org/2000/svg">
<path d="M14.7279 26.4613C15.1028 26.0862 15.3135 25.5776 15.3135 25.0473C15.3135 24.517 15.1028 24.0084 14.7279 23.6333L4.8279 13.7333L14.7279 3.8333C15.0922 3.4561 15.2938 2.95089 15.2893 2.4265C15.2847 1.90211 15.0744 1.40048 14.7035 1.02966C14.3327 0.658848 13.8311 0.448511 13.3067 0.443954C12.7823 0.439398 12.2771 0.640985 11.8999 1.0053L0.585904 12.3193C0.210963 12.6944 0.000331182 13.203 0.000331135 13.7333C0.000331089 14.2636 0.210962 14.7722 0.585904 15.1473L11.8999 26.4613C12.275 26.8362 12.7836 27.0469 13.3139 27.0469C13.8442 27.0469 14.3528 26.8362 14.7279 26.4613Z" fill="#7F3F29"/>
</svg>
